<svg t="1695710467504" class="icon" viewBox="0 0 1024 1024" version="1.1"
    xmlns="http://www.w3.org/2000/svg" p-id="5489" id="mx_n_1695710467504" width="300" height="300">
    <path d="M0 0h1024v1024H0z" fill="#FFFFFF" p-id="5490" data-spm-anchor-id="a313x.search_index.0.i3.2ca93a81fo08ga" class=""></path>
    <path d="M896 928v-32 32zM160 928v32-32z m0-128v32-32z m-64 64h32-32z m800-544h-32 32zM160 320h32-32z m672-64v32-32zM224 256v32-32z m672 640H160v64h736v-64z m0-128H160v64h736v-64z m96 96a96 96 0 0 0-96-96v64a32 32 0 0 1 32 32h64zM128 864a32 32 0 0 1 32-32v-64a96 96 0 0 0-96 96h64z m32 32a32 32 0 0 1-32-32H64a96 96 0 0 0 96 96v-64z m736 64a96 96 0 0 0 96-96h-64a32 32 0 0 1-32 32v64z m-32-640v480h64V320h-64zM128 320v480h64V320H128z m704-96H224v64h608V224z m96 96a96 96 0 0 0-96-96v64a32 32 0 0 1 32 32h64zM192 320a32 32 0 0 1 32-32V224a96 96 0 0 0-96 96h64z" fill="#000000" p-id="5491" data-spm-anchor-id="a313x.search_index.0.i4.2ca93a81fo08ga" class=""></path>
</svg>