<svg t="1695711232688" class="icon" viewBox="0 0 1024 1024" version="1.1"
    xmlns="http://www.w3.org/2000/svg" p-id="2075" width="400" height="400">
    <path d="M0 0h1024v1024H0z" fill="#202425" opacity=".01" p-id="2076"></path>
    <path d="M33.764 550.451a34.13 34.13 0 0 1 10-24.136 34.143 34.143 0 0 1 24.14-9.997h887.638a34.143 34.143 0 0 1 24.14 9.997 34.13 34.13 0 0 1 10 24.136v371.334a34.13 34.13 0 0 1-10 24.135 34.143 34.143 0 0 1-24.14 9.998H67.904a34.143 34.143 0 0 1-24.14-9.998 34.13 34.13 0 0 1-10-24.135V550.45z" fill="#19A15F" p-id="2077"></path>
    <path d="M102.4 102.23c0-18.86 15.282-34.148 34.133-34.148h750.934c18.851 0 34.133 15.289 34.133 34.148v512.213c0 18.859-15.282 34.147-34.133 34.147H750.933a34.126 34.126 0 0 0-24.136 10.002 34.155 34.155 0 0 0-9.997 24.146v17.073a34.155 34.155 0 0 1-9.997 24.146 34.126 34.126 0 0 1-24.136 10.002H341.333a34.126 34.126 0 0 1-24.136-10.002 34.155 34.155 0 0 1-9.997-24.146v-17.073a34.155 34.155 0 0 0-9.997-24.146 34.126 34.126 0 0 0-24.136-10.002H136.533c-18.851 0-34.133-15.288-34.133-34.147V102.23z" fill="#A1D06B" p-id="2078"></path>
    <path d="M341 813h341v68H341zM341 230h341v68H341zM341 401h341v68H341z" fill="#FFFFFF" p-id="2079"></path>
</svg>